<svg height="512" viewBox="0 0 513.438 513.438" width="512" xmlns="http://www.w3.org/2000/svg"><path d="M256.529 0c-34.375 0-66.142 8.643-94.42 25.688-26.037 15.694-48.004 38.215-63.525 65.127-15.721 27.258-24.378 58.107-25.035 89.21-.689 32.637 7.56 64.775 23.854 92.939a7.501 7.501 0 0012.984-7.512c-14.92-25.788-22.473-55.218-21.841-85.11.604-28.588 8.568-56.955 23.032-82.033 14.255-24.718 34.407-45.388 58.274-59.774C195.76 22.918 224.922 15 256.53 15c68.314 0 127.409 39.032 154.222 101.865s14.108 132.505-33.159 181.828l-17.93 18.71c-14.858 15.504-25.71 33.906-32.042 54.055l-33.411-20.854c-9.211-5.749-19.491-9.206-29.991-10.389v-22.64a101.29 101.29 0 0033.624-8.338 7.5 7.5 0 10-6.036-13.732 86.383 86.383 0 01-27.587 7.022v-42.4l79.758-45.875c.015.44.029.88.029 1.308 0 24.289-9.74 46.848-27.426 63.521a7.5 7.5 0 0010.29 10.914c20.723-19.537 32.136-45.972 32.136-74.435 0-47.733-70.757-130.096-92.444-154.202-2.508-2.788-6.096-4.387-9.844-4.387s-7.335 1.599-9.844 4.387c-7.455 8.288-22.311 25.261-38.04 45.829a7.5 7.5 0 0011.915 9.113 679.333 679.333 0 013.323-4.305l25.146 14.463v49.53l-50.381-28.978a431.224 431.224 0 013.437-5.156 7.5 7.5 0 00-2.001-10.416 7.5 7.5 0 00-10.416 2.001c-23.508 34.689-35.427 62.318-35.427 82.12 0 53.879 41.875 98.158 94.788 102.012v22.499c-10.978 1.026-21.757 4.531-31.371 10.532l-32.58 20.335c-6.354-19.945-17.143-38.165-31.873-53.536l-17.931-18.711a182.315 182.315 0 01-6.842-7.552 7.5 7.5 0 00-11.393 9.757c2.38 2.779 4.872 5.53 7.406 8.173l17.93 18.71c18.018 18.802 29.458 42.37 33.084 68.157l.341 2.424c-7.805 2.389-13.499 9.657-13.499 18.234v18.616c0 10.514 8.554 19.068 19.069 19.068h.751v7.795c0 12.785 10.401 23.186 23.186 23.186h6.213c3.455 16.081 17.768 28.176 34.867 28.176h18.904c17.098 0 31.411-12.095 34.867-28.176h6.213c12.785 0 23.186-10.401 23.186-23.186v-7.795h1.751c10.515 0 19.069-8.554 19.069-19.068v-18.616c0-8.577-5.694-15.845-13.499-18.234l.341-2.424c3.626-25.787 15.067-49.355 33.084-68.157l17.93-18.71c51.495-53.735 65.337-129.641 36.125-198.094C395.336 42.524 330.955 0 256.529 0zm7.69 242.824v-49.53l58.376-33.576c8.902 14.849 15.111 27.928 18.469 38.906zm50.381-95.812l-50.381 28.978v-49.53l25.147-14.464c5.831 7.497 11.847 15.549 17.661 23.854a455.25 455.25 0 017.573 11.162zm-34.674-46.89l-15.707 9.034V81.385a783.083 783.083 0 0115.707 18.737zm-46.415-.001a778.76 778.76 0 0115.708-18.738v27.773zm15.708 93.173v49.53l-76.834-44.193c3.362-10.979 9.569-24.069 18.462-38.911zm-79.788 22.268c0-.429.012-.868.028-1.309l79.76 45.876v42.395c-44.632-3.817-79.788-41.358-79.788-86.962zm56.36 147.768c18.369-11.465 42.107-11.465 60.477 0l37.498 23.404a139.702 139.702 0 00-1.21 7.116l-.517 3.678H191.02l-.517-3.678c-.363-2.58-.82-5.133-1.322-7.671zm39.69 135.108h-18.904c-8.756 0-16.259-5.472-19.269-13.176h57.441c-3.009 7.704-10.511 13.176-19.268 13.176zm49.266-36.362c0 4.514-3.672 8.186-8.186 8.186H205.497c-4.514 0-8.186-3.672-8.186-8.186v-7.795h117.436zm20.82-26.863a4.073 4.073 0 01-4.069 4.068H181.56a4.073 4.073 0 01-4.069-4.068v-18.616a4.073 4.073 0 014.069-4.068h149.938a4.073 4.073 0 014.069 4.068zM453.521 82.422a7.462 7.462 0 003.854-1.071l17.398-10.449a7.5 7.5 0 002.568-10.291 7.5 7.5 0 00-10.291-2.568l-17.398 10.449a7.5 7.5 0 003.869 13.93zM474.773 307.01l-17.398-10.449c-3.552-2.133-8.159-.983-10.291 2.568s-.982 8.158 2.568 10.291l17.398 10.449a7.495 7.495 0 0010.291-2.569 7.499 7.499 0 00-2.568-10.29zM485.351 181.456h-18.499a7.5 7.5 0 000 15h18.499a7.5 7.5 0 000-15zM63.786 68.492L46.387 58.043c-3.552-2.133-8.159-.983-10.291 2.568s-.982 8.158 2.568 10.291l17.398 10.449a7.495 7.495 0 0010.291-2.569 7.498 7.498 0 00-2.567-10.29zM56.063 296.561L38.665 307.01a7.5 7.5 0 003.869 13.931 7.462 7.462 0 003.854-1.071l17.398-10.449a7.5 7.5 0 002.568-10.291 7.5 7.5 0 00-10.291-2.569zM54.086 188.956a7.5 7.5 0 00-7.5-7.5H28.087a7.5 7.5 0 000 15h18.499a7.5 7.5 0 007.5-7.5z"/></svg>