<svg xmlns="http://www.w3.org/2000/svg" width="512" height="512"><path d="M472 128h-10.39a72 72 0 10-107.22 0H256V48a8 8 0 00-8-8h-32a8 8 0 00-8 8v80h-8V16a8 8 0 00-8-8h-32a8 8 0 00-8 8v112h-8V72a8 8 0 00-8-8h-32a8 8 0 00-8 8v56H40a32.036 32.036 0 00-32 32v240a32.036 32.036 0 0032 32h164.9l-10.67 32H168a8 8 0 00-8 8v16H80a8 8 0 000 16h352a8 8 0 000-16h-80v-16a8 8 0 00-8-8h-26.23l-10.67-32H472a32.036 32.036 0 0032-32V160a32.036 32.036 0 00-32-32zM416 24.58A56.11 56.11 0 01463.42 72H416zM411.31 88h52.11a55.962 55.962 0 01-88.94 36.83zM352 80a56.086 56.086 0 0148-55.42v52.11l-36.83 36.83A55.708 55.708 0 01352 80zM224 56h16v152h-16zm-24 88h8v64h-8zM168 24h16v184h-16zm-24 120h8v64h-8zm-32-64h16v128h-16zm224 400v8H176v-8zm-124.9-16l10.67-32h68.46l10.67 32zM488 400a16.021 16.021 0 01-16 16H40a16.021 16.021 0 01-16-16v-16h464zm0-32H24V160a16.021 16.021 0 0116-16h56v64h-8v-48a8 8 0 00-8-8H48a8 8 0 00-8 8v56a8 8 0 008 8h256a8 8 0 008-8v-56a8 8 0 00-8-8h-32a8 8 0 00-8 8v48h-8v-64h119.08a71.733 71.733 0 0065.84 0H472a16.021 16.021 0 0116 16zM72 168v40H56v-40zm208 40v-40h16v40z"/><path d="M96 392H48a8 8 0 000 16h48a8 8 0 000-16zM128 392h-8a8 8 0 000 16h8a8 8 0 000-16zM344 208a7.974 7.974 0 005.657-2.343L379.313 176H448a8 8 0 000-16h-72a8 8 0 00-5.657 2.343l-32 32A8 8 0 00344 208zM448 296a24 24 0 00-20.75 11.97l-83.75-48.86a24 24 0 00-47.11.6l-84.28 63.21a23.979 23.979 0 00-41.48 2.18l-83.3-34.71a24.01 24.01 0 10-1.96 16.51l83.3 34.71a23.995 23.995 0 0046.94-1.32l84.28-63.21a23.973 23.973 0 0040.86-1.05l83.75 48.86A24 24 0 10448 296zm-376 .04a8.02 8.02 0 110-.04zM192 344a8.011 8.011 0 01-8-8v-.04a8 8 0 118 8.04zm128-72a8 8 0 118-8 8.011 8.011 0 01-8 8zm128 56a8 8 0 118-8 8.011 8.011 0 01-8 8z"/><path d="M384 344h-56a8 8 0 000 16h56a8 8 0 000-16zM384 320h-24a8 8 0 000 16h24a8 8 0 000-16zM48 248h88a8 8 0 000-16H48a8 8 0 000 16zM160 248h8a8 8 0 000-16h-8a8 8 0 000 16z"/></svg>