<svg height="512" width="512" xmlns="http://www.w3.org/2000/svg"><path d="M270.197 398.308c-4.681.277-9.443.417-14.157.417-62.475 0-114.246-24.176-153.973-53.352 1.501-11.26 1.093-22.696.745-32.432-.142-3.965-.275-7.71-.275-11.067a7.5 7.5 0 00-15 0c0 3.625.139 7.5.285 11.603.237 6.632.494 13.832.169 20.967-12.54-10.275-23.658-20.859-33.302-30.989a7.5 7.5 0 00-10.865 10.343c11.831 12.427 25.79 25.505 41.799 37.955-1.748 6.732-4.626 12.846-9.278 17.667-7.125 7.385-17.858 11.42-32.695 12.268-3.141-8.653-11.438-14.85-21.154-14.85C10.092 366.837 0 376.94 0 389.357s10.092 22.52 22.498 22.52c9.84 0 18.224-6.356 21.271-15.182 18.961-1.003 33.532-6.662 43.372-16.86 5.253-5.444 8.829-11.814 11.243-18.621 41.128 29.036 94.051 52.511 157.657 52.511 5.007 0 10.069-.149 15.043-.444 4.135-.245 7.288-3.795 7.043-7.93s-3.79-7.29-7.93-7.043zm-247.699-1.431c-4.134 0-7.498-3.373-7.498-7.52s3.363-7.52 7.498-7.52 7.498 3.374 7.498 7.52-3.364 7.52-7.498 7.52zM21.577 288.354a7.488 7.488 0 005.857 2.81 7.5 7.5 0 005.847-12.191c-8.13-10.142-13.79-18.31-16.786-22.834 6.919-10.425 28.063-40.267 61.441-69.741 17.969-15.867 36.811-29.312 56.228-40.141-.096 4.202-.169 8.262-.169 12.246a7.5 7.5 0 0015 0c0-5.428.142-11.104.291-17.111l.075-3.018a262.76 262.76 0 014.641-2.176c32.879-15.034 67.209-22.656 102.038-22.656 63.185 0 115.296 25.141 153.889 53.372-1.498 11.253-1.09 22.681-.742 32.412.142 3.965.275 7.71.275 11.067a7.5 7.5 0 0015 0c0-3.625-.139-7.5-.285-11.603-.237-6.638-.495-13.845-.168-20.987a353.71 353.71 0 0119.073 16.756 7.5 7.5 0 0010.296-10.908 365.616 365.616 0 00-27.003-23.132c1.748-6.733 4.626-12.849 9.279-17.671 7.125-7.385 17.858-11.42 32.695-12.268 3.141 8.653 11.438 14.85 21.154 14.85 12.405 0 22.498-10.103 22.498-22.52s-10.092-22.52-22.498-22.52c-9.84 0-18.224 6.356-21.271 15.182-18.961 1.003-33.532 6.662-43.372 16.86-5.262 5.453-8.841 11.835-11.255 18.655-40.091-28.194-93.318-52.546-157.564-52.546-36.346 0-72.141 7.798-106.433 23.18-.016-26.609-2.754-53.479-19.423-70.569C119.408 40.102 103.854 34.5 83.953 34.5H7.581a7.5 7.5 0 000 15h76.372c15.926 0 27.536 3.966 35.494 12.125 14.196 14.554 15.486 41.41 15.102 67.386-23.216 12.075-45.666 27.66-66.901 46.46-42.75 37.847-65.539 75.213-66.488 76.786a7.502 7.502 0 000 7.753c.288.474 7.185 11.837 20.417 28.344zm467.925-172.966c4.134 0 7.498 3.373 7.498 7.52s-3.363 7.52-7.498 7.52-7.498-3.374-7.498-7.52 3.364-7.52 7.498-7.52zM478.136 209.232a7.5 7.5 0 10-11.234 9.94c14.667 16.579 24.403 30.498 28.687 36.961-5.878 8.874-22.049 31.808-47.392 56.654-17.311 16.972-41.041 36.817-70.283 53.141.099-4.268.173-8.389.173-12.43a7.5 7.5 0 00-15 0c0 5.428-.142 11.104-.291 17.112l-.079 3.216c-17.081 8.226-35.781 15.063-55.952 19.45a7.5 7.5 0 003.187 14.657c18.77-4.082 36.311-10.153 52.523-17.45.03 26.542 2.796 53.32 19.422 70.366 10.777 11.049 26.332 16.651 46.232 16.651h75.913a7.5 7.5 0 000-15h-75.913c-15.926 0-27.536-3.966-35.494-12.125-14.162-14.519-15.48-41.282-15.105-67.2 34.178-17.809 61.607-40.498 81.169-59.676 33.655-32.996 51.481-62.261 52.223-63.49a7.502 7.502 0 000-7.753c-.464-.767-11.587-19.061-32.786-43.024z"/><path d="M178.882 183.284a7.501 7.501 0 00-10.551 1.086c-16.423 20.193-25.467 45.679-25.467 71.762 0 62.728 50.996 113.76 113.677 113.76s113.677-51.033 113.677-113.76-50.996-113.76-113.677-113.76c-21.824 0-43.026 6.208-61.314 17.951a7.5 7.5 0 00-2.259 10.363 7.5 7.5 0 0010.363 2.259c15.866-10.188 34.265-15.573 53.209-15.573 54.411 0 98.677 44.304 98.677 98.76s-44.267 98.76-98.677 98.76-98.677-44.304-98.677-98.76c0-22.646 7.85-44.771 22.105-62.297a7.5 7.5 0 00-1.086-10.551z"/><path d="M212.964 256.132c0 24.044 19.548 43.605 43.577 43.605s43.577-19.561 43.577-43.605c0-24.043-19.548-43.604-43.577-43.604s-43.577 19.561-43.577 43.604zm43.577-28.604c15.757 0 28.577 12.832 28.577 28.604 0 15.773-12.819 28.605-28.577 28.605s-28.577-12.832-28.577-28.605c0-15.772 12.819-28.604 28.577-28.604zM194.288 283.151l-6.954 4.018a7.5 7.5 0 007.504 12.989l6.954-4.018a7.5 7.5 0 00-7.504-12.989zM317.243 212.107l-6.954 4.018a7.5 7.5 0 007.504 12.989l6.954-4.018a7.5 7.5 0 00-7.504-12.989zM296.024 310.431a7.501 7.501 0 00-12.994 7.496l4.015 6.959a7.498 7.498 0 0010.244 2.748 7.502 7.502 0 002.749-10.245zM225.036 187.379a7.5 7.5 0 10-12.994 7.496l4.015 6.959a7.498 7.498 0 0010.244 2.748 7.502 7.502 0 002.749-10.245zM310.29 296.14l6.954 4.018a7.498 7.498 0 0010.246-2.743 7.5 7.5 0 00-2.742-10.246l-6.954-4.018a7.5 7.5 0 10-7.504 12.989zM201.792 216.125l-6.954-4.018a7.5 7.5 0 00-7.504 12.988l6.954 4.018a7.498 7.498 0 0010.246-2.743 7.5 7.5 0 00-2.742-10.245zM214.791 327.634a7.499 7.499 0 0010.244-2.748l4.015-6.959a7.5 7.5 0 00-12.994-7.496l-4.015 6.959a7.502 7.502 0 002.75 10.244zM289.521 205.587a7.499 7.499 0 006.503-3.753l4.015-6.959a7.5 7.5 0 00-12.994-7.496l-4.015 6.959a7.5 7.5 0 006.491 11.249zM173.538 256.132a7.5 7.5 0 007.5 7.5h8.029a7.5 7.5 0 000-15h-8.029a7.5 7.5 0 00-7.5 7.5zM315.514 256.132a7.5 7.5 0 007.5 7.5h8.029a7.5 7.5 0 000-15h-8.029a7.5 7.5 0 00-7.5 7.5zM248.541 323.159v8.035a7.5 7.5 0 0015 0v-8.035a7.5 7.5 0 00-15 0zM263.541 189.106v-8.036a7.5 7.5 0 00-15 0v8.036a7.5 7.5 0 0015 0zM504.041 425.792H444.97a7.5 7.5 0 000 15h59.071a7.5 7.5 0 000-15zM7.581 86.208H81.65a7.5 7.5 0 000-15H7.581a7.5 7.5 0 000 15z"/><ellipse cx="256.54" cy="256.132" rx="7.5" ry="7.501" transform="rotate(-89.48 256.428 256.122)"/></svg>