<svg height="512" viewBox="0 0 511.564 511.564" width="512" xmlns="http://www.w3.org/2000/svg"><path d="M158.069 135.698c6.139 0 8.191-6.232 7.5-11.167 23.564-7.121 26.3-40.168 2.598-48.244-5.326-1.88-20.277-5.05-18.715-13.35.213-1.132 1.208-4.914 5.066-6.074 7.628-2.296 12.573 1.83 12.78 2.007l-.096-.087s7.019 5.999 12.032 1c5.516-5.5-1.87-12.033-1.87-12.033-2.248-2.07-6.394-4.612-11.795-5.841 1.074-13.888-16.592-13.237-15 .493-15.253 4.382-22.684 26.982-9.146 37.585 4.571 3.579 10.873 6.604 21.753 10.444 6.949 2.453 6.804 8.052 6.419 10.346-.789 4.698-4.748 9.775-11.576 9.82-6.92.05-8.898-.267-14.148-3.698a7.5 7.5 0 00-8.204 12.559c5.656 3.695 9.857 5.237 14.902 5.821-.542 4.791 1.67 10.419 7.5 10.419z"/><path d="M53.175 292.36c-9.08 0-18.781 8.823-17.06 18.472l5.138 28.933c.396 9.114 7.941 16.407 17.16 16.407h11.082l6.108 46.468c1.237 9.417 16.149 7.765 14.872-1.955l-5.851-44.513h147.769l-13.721 104.394c-1.492 6.032-6.849 10.219-13.133 10.219h-94.062c-6.283 0-11.641-4.187-13.133-10.219l-2.76-21.001c-1.263-9.612-16.135-7.661-14.872 1.955l2.809 21.371c1.743 13.247 15.223 22.894 27.956 22.894h94.062c12.734 0 26.213-9.646 27.956-22.894l10.939-83.226a17.052 17.052 0 008.525 2.288h11.082l14.027 106.719c1.743 13.248 15.222 22.894 27.956 22.894h94.062c12.733 0 26.213-9.646 27.956-22.894l14.027-106.719h11.082c9.218 0 16.764-7.293 17.16-16.407l5.138-28.933c1.721-9.648-7.996-18.472-17.06-18.472h-97.834v-18.618c26.686 3.338 57.954.878 79.083-17.574 32.022-27.965 27.731-82.965 27.533-85.292a7.501 7.501 0 00-5.877-6.691c-2.29-.5-56.464-11.895-88.467 16.052-4.891 4.271-8.931 9.175-12.271 14.424v-27.058c58.882-4.562 95.576-70.539 67.217-123.014a7.501 7.501 0 00-13.265 7.004c24.529 45.076-10.071 102.005-61.453 101.36-38.272.001-69.409-31.039-69.409-69.193-.462-54.05 61.422-87.79 106.719-58.334a7.5 7.5 0 108.059-12.65C343.311 2.72 268.08 43.788 268.646 109.54c-.001 43.901 33.868 80.042 76.91 83.842v28.147c-3.468-5.659-7.722-10.947-12.95-15.512-17.386-15.182-41.314-18.751-59.914-18.766.493-9.536-.04-16.039-.068-16.374a7.499 7.499 0 00-5.877-6.691c-2.291-.499-56.464-11.895-88.467 16.052-4.891 4.271-8.93 9.174-12.271 14.423v-27.057c43.042-3.8 76.91-39.941 76.91-83.843-4.634-111.698-164.204-111.664-168.821-.002 0 43.902 33.869 80.042 76.911 83.842v28.147c-3.468-5.659-7.722-10.948-12.95-15.513-32.003-27.947-86.178-16.552-88.467-16.052a7.499 7.499 0 00-5.877 6.691c-3.268 55.837 20.31 114.48 107.294 102.78v18.704H53.175zm3.062 46.651c0-.439-.039-.879-.116-1.312l-5.08-28.604a2.175 2.175 0 012.134-1.736h210.667c1.054 0 1.935.747 2.134 1.736l-1.606 9.044h-16.648c-9.08 0-18.781 8.823-17.06 18.472l.81 4.56H58.413a2.17 2.17 0 01-2.176-2.16zM413.22 486.344c-1.492 6.033-6.85 10.22-13.133 10.22h-94.062c-6.284 0-11.641-4.187-13.133-10.219l-13.721-104.394H426.94zm47.303-151.467s-5.196 29.476-5.196 29.915a2.17 2.17 0 01-2.176 2.16H252.96a2.17 2.17 0 01-2.176-2.16c0-.439-5.196-29.915-5.196-29.915a2.175 2.175 0 012.134-1.736H458.39a2.173 2.173 0 012.133 1.736zm-98.92-72.891c7.694-55.514 48.734-63.728 90.84-58.311.056 5.117-.169 13.189-1.579 22.304-2.143 13.847-7.541 32.837-21.091 44.67-16.842 14.707-42.853 15.82-59.502 14.696l40.896-35.713a7.501 7.501 0 00-9.866-11.299l-40.745 35.581c-.105-4.094.386-7.662 1.047-11.928zm-38.863-44.671c16.816 14.685 21.317 40.166 22.37 56.734l-40.982-35.72a7.499 7.499 0 00-10.582.726 7.5 7.5 0 00.726 10.581l40.963 35.704c-61.125 4.693-82.306-29.686-82.232-81.666 13.671-1.919 48.798-4.644 69.737 13.641zm-155.685 18.891c2.143-13.848 7.541-32.838 21.091-44.671 20.946-18.292 56.088-15.559 69.746-13.64.029 2.661-.022 6.125-.268 10.092-7.698.753-12.814 1.831-13.484 1.977a7.499 7.499 0 00-5.877 6.691c-.115 1.344-1.595 20.269 3.35 41.405-15.316 19.637-42.623 23.075-65.888 21.504l40.896-35.713a7.501 7.501 0 00-9.866-11.299l-40.744 35.581c-.107-4.093.384-7.662 1.044-11.927zM89.098 83.758c0-38.154 31.138-69.194 69.411-69.194 92.083 3.803 92.057 134.598-.001 138.388-38.272 0-69.41-31.04-69.41-69.194zm-7.985 161.111c-20.918-18.268-22.784-53.256-22.657-66.989 5.092-.723 13.177-1.562 22.462-1.353 47.689.532 66.859 27.984 69.644 71.742l-40.982-35.72a7.498 7.498 0 00-10.582.726 7.5 7.5 0 00.726 10.581l40.963 35.704c-16.648 1.132-42.709.036-59.574-14.691zm84.896 28.873c27.451 3.434 59.752.717 80.833-19.19 15.404 40.781 59.405 50.48 98.714 44.884v18.704h-65.951l1.298-7.309c1.721-9.648-7.996-18.472-17.06-18.472H166.01v-18.617z"/><path d="M352.617 161.478c6.139 0 8.191-6.232 7.5-11.167 23.564-7.121 26.3-40.168 2.598-48.244-5.326-1.88-20.277-5.05-18.715-13.35.213-1.132 1.208-4.914 5.066-6.074 7.628-2.296 12.573 1.83 12.78 2.007l-.096-.087s7.019 5.999 12.032 1c5.516-5.5-1.87-12.033-1.87-12.033-2.248-2.07-6.394-4.612-11.795-5.841 1.074-13.888-16.592-13.237-15 .493-15.253 4.382-22.684 26.982-9.146 37.585 4.571 3.579 10.873 6.604 21.753 10.444 6.949 2.453 6.804 8.052 6.419 10.346-.789 4.698-4.748 9.775-11.576 9.82-6.92.05-8.898-.267-14.148-3.698a7.5 7.5 0 00-8.204 12.559c5.656 3.695 9.857 5.237 14.902 5.821-.542 4.791 1.671 10.419 7.5 10.419z"/></svg>